# Blender 3.3.1
# www.blender.org
mtllib tile6.mtl
o floor.006_dark_grey_0
v -0.006989 0.028121 0.003709
v 0.435472 0.028121 0.003709
v 0.435472 0.028121 -0.438751
v -0.006989 0.028121 -0.438751
v 0.451070 0.014361 0.019308
v 0.451070 0.014361 -0.454349
v 0.435472 0.028121 -0.438751
v 0.435472 0.028121 0.003709
v 0.451070 0.014361 -0.454349
v -0.022587 0.014361 -0.454349
v -0.006989 0.028121 -0.438751
v 0.435472 0.028121 -0.438751
v -0.022587 0.014361 0.019308
v 0.451070 0.014361 0.019308
v 0.435472 0.028121 0.003709
v -0.006989 0.028121 0.003709
v -0.022587 0.014361 -0.454349
v -0.022587 0.014361 0.019308
v -0.006989 0.028121 0.003709
v -0.006989 0.028121 -0.438751
v -0.535699 0.014361 0.032459
v -0.035738 0.014361 0.032459
v -0.035738 0.014361 -0.467501
v -0.535699 0.014361 -0.467501
v -0.506949 0.052353 0.003710
v -0.064488 0.052353 0.003710
v -0.064488 0.028121 -0.438751
v -0.506949 0.028121 -0.438751
v -0.048889 0.014361 0.019308
v -0.048889 0.014361 -0.454349
v -0.064488 0.028121 -0.438751
v -0.064488 0.052353 0.003710
v -0.048889 0.014361 -0.454349
v -0.522547 0.014361 -0.454349
v -0.506949 0.028121 -0.438751
v -0.064488 0.028121 -0.438751
v -0.522547 0.014361 0.019308
v -0.048889 0.014361 0.019308
v -0.064488 0.052353 0.003710
v -0.506949 0.052353 0.003710
v -0.522547 0.014361 -0.454349
v -0.522547 0.014361 0.019308
v -0.506949 0.052353 0.003710
v -0.506949 0.028121 -0.438751
v -0.035738 0.014361 0.032459
v 0.464223 0.014361 0.032459
v 0.464223 0.014361 -0.467501
v -0.035738 0.014361 -0.467501
v -0.035660 0.014361 0.532419
v 0.464301 0.014361 0.532419
v 0.464301 0.014361 0.032459
v -0.035660 0.014361 0.032459
v -0.006910 0.028121 0.503670
v 0.435551 0.028121 0.503670
v 0.435551 0.028121 0.061210
v -0.006910 0.028121 0.061210
v 0.451149 0.014361 0.519268
v 0.451149 0.014361 0.045611
v 0.435551 0.028121 0.061210
v 0.435551 0.028121 0.503670
v 0.451149 0.014361 0.045611
v -0.022508 0.014361 0.045611
v -0.006910 0.028121 0.061210
v 0.435551 0.028121 0.061210
v -0.022508 0.014361 0.519268
v 0.451149 0.014361 0.519268
v 0.435551 0.028121 0.503670
v -0.006910 0.028121 0.503670
v -0.022508 0.014361 0.045611
v -0.022508 0.014361 0.519268
v -0.006910 0.028121 0.503670
v -0.006910 0.028121 0.061210
v -0.535699 0.014361 0.532499
v -0.035660 0.014361 0.532497
v -0.035660 0.014361 0.032459
v -0.535699 0.014361 0.032459
v -0.535699 -0.047647 0.032459
v -0.535699 -0.047647 -0.467501
v -0.035738 -0.047647 -0.467501
v -0.035738 -0.047647 0.032459
v -0.035738 -0.047647 0.032459
v -0.035738 -0.047647 -0.467501
v 0.464223 -0.047647 -0.467501
v 0.464301 -0.047647 0.032459
v -0.035660 -0.047647 0.532497
v -0.035738 -0.047647 0.032459
v 0.464301 -0.047647 0.032459
v 0.464301 -0.047647 0.532419
v -0.535699 -0.047647 0.532499
v -0.035660 -0.047647 0.532497
v -0.035738 0.014361 0.032459
v -0.035738 -0.047647 0.032459
v -0.035738 -0.047647 -0.467501
v -0.035738 0.014361 -0.467501
v -0.035738 0.014361 0.032459
v -0.035738 -0.047647 0.032459
v 0.464301 -0.047647 0.032459
v 0.464223 0.014361 0.032459
v -0.535699 0.014361 -0.467501
v -0.535699 -0.047647 -0.467501
v -0.535699 -0.047647 0.032459
v -0.535699 0.014361 0.032459
v -0.035660 0.014361 0.532419
v -0.035660 -0.047647 0.532497
v 0.464301 -0.047647 0.532419
v 0.464301 0.014361 0.532419
v -0.035738 0.014361 -0.467501
v -0.035738 -0.047647 -0.467501
v -0.535699 -0.047647 -0.467501
v -0.535699 0.014361 -0.467501
v 0.464301 0.014361 0.532419
v 0.464301 -0.047647 0.532419
v 0.464301 -0.047647 0.032459
v 0.464301 0.014361 0.032459
v -0.535699 0.014361 0.032459
v -0.535699 -0.047647 0.032459
v -0.535699 -0.047647 0.532499
v -0.535699 0.014361 0.532499
v -0.035660 0.014361 0.032459
v -0.035738 -0.047647 0.032459
v -0.035660 -0.047647 0.532497
v -0.035660 0.014361 0.532419
v -0.035660 0.014361 0.532497
v -0.035660 -0.047647 0.532497
v -0.035738 -0.047647 0.032459
v -0.035660 0.014361 0.032459
v 0.464301 0.014361 0.032459
v 0.464301 -0.047647 0.032459
v -0.035738 -0.047647 0.032459
v -0.035660 0.014361 0.032459
v -0.535699 0.014361 0.532499
v -0.535699 -0.047647 0.532499
v -0.035660 -0.047647 0.532497
v -0.035660 0.014361 0.532497
v 0.464223 0.014361 0.032459
v 0.464301 -0.047647 0.032459
v 0.464223 -0.047647 -0.467501
v 0.464223 0.014361 -0.467501
v -0.035660 0.014361 0.032459
v -0.035738 -0.047647 0.032459
v -0.535699 -0.047647 0.032459
v -0.535699 0.014361 0.032459
v 0.464223 0.014361 -0.467501
v 0.464223 -0.047647 -0.467501
v -0.035738 -0.047647 -0.467501
v -0.035738 0.014361 -0.467501
v -0.535699 0.014361 0.032459
v -0.535699 -0.047647 0.032459
v -0.035738 -0.047647 0.032459
v -0.035738 0.014361 0.032459
v -0.035738 0.014361 -0.467501
v -0.035738 -0.047647 -0.467501
v -0.035738 -0.047647 0.032459
v -0.035738 0.014361 0.032459
vn -0.0000 1.0000 -0.0000
vn 0.6615 0.7499 -0.0000
vn -0.0000 0.7499 -0.6615
vn -0.0000 0.7499 0.6615
vn -0.6615 0.7499 -0.0000
vn -0.0000 0.9985 -0.0547
vn 0.8563 0.5162 -0.0136
vn 0.8564 0.5162 -0.0136
vn -0.0000 0.3798 0.9251
vn -0.8564 0.5162 -0.0137
vn -0.8564 0.5162 -0.0136
vn -0.0000 -1.0000 -0.0000
vn 1.0000 -0.0000 -0.0000
vn -0.0000 -0.0000 1.0000
vn -1.0000 -0.0000 -0.0000
vn 0.0001 0.0005 1.0000
vn -0.0000 -0.0000 -1.0000
vn -1.0000 0.0008 0.0001
vn -1.0000 0.0005 0.0001
vn 1.0000 -0.0000 -0.0002
vn 1.0000 -0.0008 -0.0001
vn 1.0000 0.0013 -0.0002
vn 1.0000 0.0007 -0.0001
vt 0.061981 0.792333
vt 0.061981 0.792333
vt 0.061981 0.792333
vt 0.061981 0.792333
vt 0.061981 0.792333
vt 0.061981 0.792333
vt 0.061981 0.792333
vt 0.061981 0.792333
vt 0.061981 0.792333
vt 0.061981 0.792333
vt 0.061981 0.792333
vt 0.061981 0.792333
vt 0.061981 0.792333
vt 0.061981 0.792333
vt 0.061981 0.792333
vt 0.061981 0.792333
vt 0.061981 0.792333
vt 0.061981 0.792333
vt 0.061981 0.792333
vt 0.061981 0.792333
vt 0.000000 1.000000
vt 0.000000 1.000000
vt 0.000000 1.000000
vt 0.000000 1.000000
vt 0.061981 0.792333
vt 0.061981 0.792333
vt 0.061981 0.792333
vt 0.061981 0.792333
vt 0.061981 0.792333
vt 0.061981 0.792333
vt 0.061981 0.792333
vt 0.061981 0.792333
vt 0.061981 0.792333
vt 0.061981 0.792333
vt 0.061981 0.792333
vt 0.061981 0.792333
vt 0.061981 0.792333
vt 0.061981 0.792333
vt 0.061981 0.792333
vt 0.061981 0.792333
vt 0.061981 0.792333
vt 0.061981 0.792333
vt 0.061981 0.792333
vt 0.061981 0.792333
vt 0.000000 1.000000
vt 0.000000 1.000000
vt 0.000000 1.000000
vt 0.000000 1.000000
vt 0.000000 1.000000
vt 0.000000 1.000000
vt 0.000000 1.000000
vt 0.000000 1.000000
vt 0.061981 0.792333
vt 0.061981 0.792333
vt 0.061981 0.792333
vt 0.061981 0.792333
vt 0.061981 0.792333
vt 0.061981 0.792333
vt 0.061981 0.792333
vt 0.061981 0.792333
vt 0.061981 0.792333
vt 0.061981 0.792333
vt 0.061981 0.792333
vt 0.061981 0.792333
vt 0.061981 0.792333
vt 0.061981 0.792333
vt 0.061981 0.792333
vt 0.061981 0.792333
vt 0.061981 0.792333
vt 0.061981 0.792333
vt 0.061981 0.792333
vt 0.061981 0.792333
vt 0.000000 1.000000
vt 0.000000 1.000000
vt 0.000000 1.000000
vt 0.000000 1.000000
vt 0.000000 1.000000
vt 0.000000 1.000000
vt 0.000000 1.000000
vt 0.000000 1.000000
vt 0.000000 1.000000
vt 0.000000 1.000000
vt 0.000000 1.000000
vt 0.000000 1.000000
vt 0.000000 1.000000
vt 0.000000 1.000000
vt 0.000000 1.000000
vt 0.000000 1.000000
vt 0.000000 1.000000
vt 0.000000 1.000000
vt 0.000000 1.000000
vt 0.000000 1.000000
vt 0.000000 1.000000
vt 0.000000 1.000000
vt 0.000000 1.000000
vt 0.000000 1.000000
vt 0.000000 1.000000
vt 0.000000 1.000000
vt 0.000000 1.000000
vt 0.000000 1.000000
vt 0.000000 1.000000
vt 0.000000 1.000000
vt 0.000000 1.000000
vt 0.000000 1.000000
vt 0.000000 1.000000
vt 0.000000 1.000000
vt 0.000000 1.000000
vt 0.000000 1.000000
vt 0.000000 1.000000
vt 0.000000 1.000000
vt 0.000000 1.000000
vt 0.000000 1.000000
vt 0.000000 1.000000
vt 0.000000 1.000000
vt 0.000000 1.000000
vt 0.000000 1.000000
vt 0.000000 1.000000
vt 0.000000 1.000000
vt 0.000000 1.000000
vt 0.000000 1.000000
vt 0.000000 1.000000
vt 0.000000 1.000000
vt 0.000000 1.000000
vt 0.000000 1.000000
vt 0.000000 1.000000
vt 0.000000 1.000000
vt 0.000000 1.000000
vt 0.000000 1.000000
vt 0.000000 1.000000
vt 0.000000 1.000000
vt 0.000000 1.000000
vt 0.000000 1.000000
vt 0.000000 1.000000
vt 0.000000 1.000000
vt 0.000000 1.000000
vt 0.000000 1.000000
vt 0.000000 1.000000
vt 0.000000 1.000000
vt 0.000000 1.000000
vt 0.000000 1.000000
vt 0.000000 1.000000
vt 0.000000 1.000000
vt 0.000000 1.000000
vt 0.000000 1.000000
vt 0.000000 1.000000
vt 0.000000 1.000000
vt 0.000000 1.000000
vt 0.000000 1.000000
vt 0.000000 1.000000
vt 0.000000 1.000000
vt 0.000000 1.000000
vt 0.000000 1.000000
vt 0.000000 1.000000
vt 0.000000 1.000000
s 0
usemtl dark_grey.002
f 1/1/1 2/2/1 3/3/1
f 1/1/1 3/3/1 4/4/1
f 5/5/2 6/6/2 7/7/2
f 5/5/2 7/7/2 8/8/2
f 9/9/3 10/10/3 11/11/3
f 9/9/3 11/11/3 12/12/3
f 13/13/4 14/14/4 15/15/4
f 13/13/4 15/15/4 16/16/4
f 17/17/5 18/18/5 19/19/5
f 17/17/5 19/19/5 20/20/5
usemtl grey.002
f 21/21/1 22/22/1 23/23/1
f 21/21/1 23/23/1 24/24/1
f 25/25/6 26/26/6 27/27/6
f 25/25/6 27/27/6 28/28/6
s 1
f 29/29/7 30/30/8 31/31/8
f 29/29/7 31/31/8 32/32/8
s 0
f 33/33/3 34/34/3 35/35/3
f 33/33/3 35/35/3 36/36/3
f 37/37/9 38/38/9 39/39/9
f 37/37/9 39/39/9 40/40/9
s 1
f 41/41/10 42/42/11 43/43/11
f 41/41/10 43/43/11 44/44/11
s 0
f 45/45/1 46/46/1 47/47/1
f 45/45/1 47/47/1 48/48/1
f 49/49/1 50/50/1 51/51/1
f 49/49/1 51/51/1 52/52/1
f 53/53/1 54/54/1 55/55/1
f 53/53/1 55/55/1 56/56/1
f 57/57/2 58/58/2 59/59/2
f 57/57/2 59/59/2 60/60/2
f 61/61/3 62/62/3 63/63/3
f 61/61/3 63/63/3 64/64/3
f 65/65/4 66/66/4 67/67/4
f 65/65/4 67/67/4 68/68/4
s 1
f 69/69/5 70/70/5 71/71/5
s 0
f 69/69/5 71/71/5 72/72/5
f 73/73/1 74/74/1 75/75/1
f 73/73/1 75/75/1 76/76/1
f 77/77/12 78/78/12 79/79/12
f 77/77/12 79/79/12 80/80/12
f 81/81/12 82/82/12 83/83/12
f 81/81/12 83/83/12 84/84/12
f 85/85/12 86/86/12 87/87/12
f 85/85/12 87/87/12 88/88/12
f 89/89/12 77/77/12 80/80/12
f 89/89/12 80/80/12 90/90/12
f 91/91/13 92/92/13 93/93/13
f 91/91/13 93/93/13 94/94/13
f 95/95/14 96/96/14 97/97/14
f 95/95/14 97/97/14 98/98/14
f 99/99/15 100/100/15 101/101/15
f 99/99/15 101/101/15 102/102/15
f 103/103/16 104/104/16 105/105/16
f 103/103/14 105/105/14 106/106/14
f 107/107/17 108/108/17 109/109/17
f 107/107/17 109/109/17 110/110/17
f 111/111/13 112/112/13 113/113/13
f 111/111/13 113/113/13 114/114/13
f 115/115/15 116/116/15 117/117/15
f 115/115/15 117/117/15 118/118/15
f 119/119/18 120/120/18 121/121/18
f 119/119/19 121/121/19 122/122/19
f 123/123/20 124/124/20 125/125/20
f 123/123/21 125/125/21 126/126/21
f 127/127/17 128/128/17 129/129/17
f 127/127/17 129/129/17 130/130/17
f 131/131/14 132/132/14 133/133/14
f 131/131/14 133/133/14 134/134/14
f 135/135/22 136/136/22 137/137/22
f 135/135/23 137/137/23 138/138/23
f 139/139/17 140/140/17 141/141/17
f 139/139/17 141/141/17 142/142/17
f 143/143/17 144/144/17 145/145/17
f 143/143/17 145/145/17 146/146/17
f 147/147/14 148/148/14 149/149/14
f 147/147/14 149/149/14 150/150/14
f 151/151/15 152/152/15 153/153/15
f 151/151/15 153/153/15 154/154/15
