# Blender 3.3.1
# www.blender.org
mtllib tile7.mtl
o floor.007_grey_0
v -0.513613 0.023356 -0.022556
v -0.013613 0.023356 -0.022558
v -0.013613 0.023356 -0.522556
v -0.513613 0.023356 -0.522556
v -0.013613 0.023356 -0.022556
v 0.486387 0.023356 -0.022558
v 0.486387 0.023356 -0.522556
v -0.013613 0.023356 -0.522556
v -0.513613 0.023356 0.477444
v -0.013613 0.023356 0.477441
v -0.013613 0.023356 -0.022556
v -0.513613 0.023356 -0.022556
v -0.013613 0.023356 0.477363
v 0.486309 0.023356 0.477363
v 0.486309 0.023356 -0.022556
v 0.015135 0.041516 0.448617
v 0.457561 0.041516 0.448617
v 0.457561 0.041516 0.006191
v 0.015135 0.041516 0.006191
v 0.473158 0.023356 0.464213
v 0.473158 0.023356 -0.009405
v 0.457561 0.041516 0.006191
v 0.457561 0.041516 0.448617
v 0.473158 0.023356 -0.009405
v -0.000462 0.023356 -0.009405
v 0.015135 0.041516 0.006191
v 0.457561 0.041516 0.006191
v -0.000462 0.023356 0.464213
v 0.473158 0.023356 0.464213
v 0.457561 0.041516 0.448617
v 0.015135 0.041516 0.448617
v -0.000462 0.023356 -0.009405
v -0.000462 0.023356 0.464213
v 0.015135 0.041516 0.448617
v 0.015135 0.041516 0.006191
v -0.513613 -0.058484 -0.022556
v -0.513613 -0.058484 -0.522556
v -0.013613 -0.058484 -0.522556
v -0.013613 -0.058484 -0.022556
v 0.486387 -0.058484 -0.522556
v 0.486309 -0.058484 -0.022556
v -0.513613 -0.058484 0.477444
v -0.513613 -0.058484 -0.022556
v -0.013613 -0.058484 -0.022556
v -0.013613 -0.058484 0.477363
v -0.013613 -0.058484 0.477363
v 0.486309 -0.058484 0.477363
v 0.486387 0.023356 -0.522556
v 0.486387 -0.058484 -0.522556
v -0.013613 -0.058484 -0.522556
v -0.013613 0.023356 -0.522556
v -0.513613 0.023356 -0.522556
v -0.513613 -0.058484 -0.522556
v -0.513613 -0.058484 -0.022556
v -0.513613 0.023356 -0.022556
v -0.513613 0.023356 -0.022556
v -0.513613 -0.058484 0.477444
v -0.513613 0.023356 0.477444
v -0.013613 0.023356 -0.022558
v -0.013613 -0.058484 -0.022556
v -0.013613 -0.058484 -0.522556
v -0.013613 0.023356 -0.522556
v -0.013613 0.023356 0.477441
v -0.013613 -0.058484 0.477363
v -0.013613 -0.058484 -0.022556
v -0.013613 0.023356 -0.022556
v -0.013613 0.023356 0.477363
v -0.013613 -0.058484 0.477363
v 0.486309 -0.058484 0.477363
v 0.486309 0.023356 0.477363
v -0.513613 0.023356 -0.022556
v -0.513613 -0.058484 -0.022556
v -0.013613 -0.058484 -0.022556
v -0.013613 0.023356 -0.022558
v -0.513613 0.023356 0.477444
v -0.513613 -0.058484 0.477444
v -0.013613 -0.058484 0.477363
v -0.013613 0.023356 0.477441
v 0.486309 0.023356 0.477363
v 0.486309 -0.058484 0.477363
v 0.486309 -0.058484 -0.022556
v 0.486309 0.023356 -0.022556
v -0.013613 0.023356 -0.522556
v -0.513613 -0.058484 -0.522556
v -0.513613 0.023356 -0.522556
v -0.013613 0.023356 -0.022556
v -0.013613 -0.058484 -0.022556
v -0.513613 -0.058484 -0.022556
v -0.513613 0.023356 -0.022556
v -0.013613 0.023356 -0.022556
v -0.013613 -0.058484 -0.022556
v -0.013613 -0.058484 0.477363
v -0.013613 0.023356 0.477363
v -0.013613 0.023356 -0.522556
v -0.013613 -0.058484 -0.522556
v -0.013613 -0.058484 -0.022556
v -0.013613 0.023356 -0.022556
v 0.486309 0.023356 -0.022556
v 0.486309 -0.058484 -0.022556
v -0.013613 -0.058484 -0.022556
v -0.013613 0.023356 -0.022556
v 0.486387 0.023356 -0.022558
v 0.486309 -0.058484 -0.022556
v 0.486387 -0.058484 -0.522556
v 0.486387 0.023356 -0.522556
v -0.013613 0.023356 -0.022556
v -0.013613 -0.058484 -0.022556
v 0.486309 -0.058484 -0.022556
v 0.486387 0.023356 -0.022558
v -0.468954 0.040558 -0.134245
v -0.132992 0.040558 0.116269
v 0.117523 0.040558 -0.219691
v -0.218438 0.040558 -0.470205
v -0.129980 0.023356 0.136944
v 0.138198 0.023356 -0.222703
v 0.117523 0.040558 -0.219691
v -0.132992 0.040558 0.116269
v 0.138198 0.023356 -0.222703
v -0.221451 0.023356 -0.490880
v -0.218438 0.040558 -0.470205
v 0.117523 0.040558 -0.219691
v -0.489629 0.023356 -0.131233
v -0.129980 0.023356 0.136944
v -0.132992 0.040558 0.116269
v -0.468954 0.040558 -0.134245
v -0.221451 0.023356 -0.490880
v -0.489629 0.023356 -0.131233
v -0.468954 0.040558 -0.134245
v -0.218438 0.040558 -0.470205
vn -0.0000 1.0000 -0.0000
vn 0.7586 0.6515 -0.0000
vn -0.0000 0.6515 -0.7586
vn -0.0000 0.6515 0.7586
vn -0.7586 0.6515 -0.0000
vn -0.0000 -1.0000 -0.0000
vn -0.0000 -0.0000 -1.0000
vn -1.0000 -0.0000 -0.0000
vn 1.0000 -0.0000 -0.0000
vn -0.0000 -0.0000 1.0000
vn 0.0002 -0.0000 1.0000
vn 0.0001 -0.0006 1.0000
vn 1.0000 -0.0010 0.0002
vn 0.6082 0.6515 0.4535
vn 0.4535 0.6515 -0.6082
vn -0.4535 0.6515 0.6082
vn -0.6082 0.6515 -0.4535
vn -0.6081 0.6515 -0.4535
vt 0.000000 1.000000
vt 0.000000 1.000000
vt 0.000000 1.000000
vt 0.000000 1.000000
vt 0.000000 1.000000
vt 0.000000 1.000000
vt 0.000000 1.000000
vt 0.000000 1.000000
vt 0.000000 1.000000
vt 0.000000 1.000000
vt 0.000000 1.000000
vt 0.000000 1.000000
vt 0.000000 1.000000
vt 0.000000 1.000000
vt 0.000000 1.000000
vt 0.061981 0.792333
vt 0.061981 0.792333
vt 0.061981 0.792333
vt 0.061981 0.792333
vt 0.061981 0.792333
vt 0.061981 0.792333
vt 0.061981 0.792333
vt 0.061981 0.792333
vt 0.061981 0.792333
vt 0.061981 0.792333
vt 0.061981 0.792333
vt 0.061981 0.792333
vt 0.061981 0.792333
vt 0.061981 0.792333
vt 0.061981 0.792333
vt 0.061981 0.792333
vt 0.061981 0.792333
vt 0.061981 0.792333
vt 0.061981 0.792333
vt 0.061981 0.792333
vt 0.000000 1.000000
vt 0.000000 1.000000
vt 0.000000 1.000000
vt 0.000000 1.000000
vt 0.000000 1.000000
vt 0.000000 1.000000
vt 0.000000 1.000000
vt 0.000000 1.000000
vt 0.000000 1.000000
vt 0.000000 1.000000
vt 0.000000 1.000000
vt 0.000000 1.000000
vt 0.000000 1.000000
vt 0.000000 1.000000
vt 0.000000 1.000000
vt 0.000000 1.000000
vt 0.000000 1.000000
vt 0.000000 1.000000
vt 0.000000 1.000000
vt 0.000000 1.000000
vt 0.000000 1.000000
vt 0.000000 1.000000
vt 0.000000 1.000000
vt 0.000000 1.000000
vt 0.000000 1.000000
vt 0.000000 1.000000
vt 0.000000 1.000000
vt 0.000000 1.000000
vt 0.000000 1.000000
vt 0.000000 1.000000
vt 0.000000 1.000000
vt 0.000000 1.000000
vt 0.000000 1.000000
vt 0.000000 1.000000
vt 0.000000 1.000000
vt 0.000000 1.000000
vt 0.000000 1.000000
vt 0.000000 1.000000
vt 0.000000 1.000000
vt 0.000000 1.000000
vt 0.000000 1.000000
vt 0.000000 1.000000
vt 0.000000 1.000000
vt 0.000000 1.000000
vt 0.000000 1.000000
vt 0.000000 1.000000
vt 0.000000 1.000000
vt 0.000000 1.000000
vt 0.000000 1.000000
vt 0.000000 1.000000
vt 0.000000 1.000000
vt 0.000000 1.000000
vt 0.000000 1.000000
vt 0.000000 1.000000
vt 0.000000 1.000000
vt 0.000000 1.000000
vt 0.000000 1.000000
vt 0.000000 1.000000
vt 0.000000 1.000000
vt 0.000000 1.000000
vt 0.000000 1.000000
vt 0.000000 1.000000
vt 0.000000 1.000000
vt 0.000000 1.000000
vt 0.000000 1.000000
vt 0.000000 1.000000
vt 0.000000 1.000000
vt 0.000000 1.000000
vt 0.000000 1.000000
vt 0.000000 1.000000
vt 0.000000 1.000000
vt 0.000000 1.000000
vt 0.000000 1.000000
vt 0.000000 1.000000
vt 0.061981 0.792333
vt 0.061981 0.792333
vt 0.061981 0.792333
vt 0.061981 0.792333
vt 0.061981 0.792333
vt 0.061981 0.792333
vt 0.061981 0.792333
vt 0.061981 0.792333
vt 0.061981 0.792333
vt 0.061981 0.792333
vt 0.061981 0.792333
vt 0.061981 0.792333
vt 0.061981 0.792333
vt 0.061981 0.792333
vt 0.061981 0.792333
vt 0.061981 0.792333
vt 0.061981 0.792333
vt 0.061981 0.792333
vt 0.061981 0.792333
vt 0.061981 0.792333
s 0
usemtl grey.001
f 1/1/1 2/2/1 3/3/1
f 1/1/1 3/3/1 4/4/1
f 5/5/1 6/6/1 7/7/1
f 5/5/1 7/7/1 8/8/1
f 9/9/1 10/10/1 11/11/1
f 9/9/1 11/11/1 12/12/1
f 13/13/1 14/14/1 15/15/1
f 13/13/1 15/15/1 5/5/1
f 16/16/1 17/17/1 18/18/1
f 16/16/1 18/18/1 19/19/1
f 20/20/2 21/21/2 22/22/2
f 20/20/2 22/22/2 23/23/2
s 1
f 24/24/3 25/25/3 26/26/3
s 0
f 24/24/3 26/26/3 27/27/3
s 1
f 28/28/4 29/29/4 30/30/4
s 0
f 28/28/4 30/30/4 31/31/4
f 32/32/5 33/33/5 34/34/5
f 32/32/5 34/34/5 35/35/5
f 36/36/6 37/37/6 38/38/6
f 36/36/6 38/38/6 39/39/6
f 39/39/6 38/38/6 40/40/6
f 39/39/6 40/40/6 41/41/6
f 42/42/6 43/43/6 44/44/6
f 42/42/6 44/44/6 45/45/6
f 46/46/6 39/39/6 41/41/6
f 46/46/6 41/41/6 47/47/6
f 48/48/7 49/49/7 50/50/7
f 48/48/7 50/50/7 51/51/7
f 52/52/8 53/53/8 54/54/8
f 52/52/8 54/54/8 55/55/8
f 56/56/8 54/54/8 57/57/8
f 56/56/8 57/57/8 58/58/8
f 59/59/9 60/60/9 61/61/9
f 59/59/9 61/61/9 62/62/9
f 63/63/9 64/64/9 65/65/9
f 63/63/9 65/65/9 66/66/9
f 67/67/10 68/68/10 69/69/10
f 67/67/10 69/69/10 70/70/10
f 71/71/10 72/72/10 73/73/10
f 71/71/10 73/73/10 74/74/10
f 75/75/11 76/76/11 77/77/11
f 75/75/12 77/77/12 78/78/12
f 79/79/9 80/80/9 81/81/9
f 79/79/9 81/81/9 82/82/9
f 83/83/7 50/50/7 84/84/7
f 83/83/7 84/84/7 85/85/7
f 86/86/7 87/87/7 88/88/7
f 86/86/7 88/88/7 89/89/7
f 90/90/8 91/91/8 92/92/8
f 90/90/8 92/92/8 93/93/8
f 94/94/8 95/95/8 96/96/8
f 94/94/8 96/96/8 97/97/8
f 98/98/7 99/99/7 100/100/7
f 98/98/7 100/100/7 101/101/7
f 102/102/13 103/103/13 104/104/13
f 102/102/9 104/104/9 105/105/9
f 106/106/10 107/107/10 108/108/10
f 106/106/10 108/108/10 109/109/10
usemtl dark_grey.001
f 110/110/1 111/111/1 112/112/1
f 110/110/1 112/112/1 113/113/1
f 114/114/14 115/115/14 116/116/14
f 114/114/14 116/116/14 117/117/14
f 118/118/15 119/119/15 120/120/15
f 118/118/15 120/120/15 121/121/15
f 122/122/16 123/123/16 124/124/16
f 122/122/16 124/124/16 125/125/16
f 126/126/17 127/127/17 128/128/17
f 126/126/18 128/128/18 129/129/18
